# xmcd CD database file
#
# Track frame offsets:
#	150
#	14146
#	48465
#	65243
#	100330
#	139929
#	164066
#	199286
#	214806
#	243653
#	271626
#
# Disc length: 4351 seconds
#
# Revision: 3
# Processed by: cddbd v1.5.2PL0 Copyright (c) Steve Scherf et al.
# Submitted via: CDex 1.51
#
DISCID=b310fd0b
DTITLE=Jimi Hendrix - Blues
DYEAR=1970
DGENRE=Blues
TTITLE0=Hear My Train A Comin' (Acoustic)
TTITLE1=Born Under A Bad Sign
TTITLE2=Red House
TTITLE3=Catfish Blues
TTITLE4=Voodoo Chile Blues
TTITLE5=Mannish Boy
TTITLE6=Once I Had A Woman
TTITLE7=Bleeding Heart
TTITLE8=Jelly 292
TTITLE9=Electric Church Red House
TTITLE10=Hear My Train A Comin' (Electric)
EXTD=YEAR: 1970
EXTT0=
EXTT1=
EXTT2=
EXTT3=
EXTT4=
EXTT5=
EXTT6=
EXTT7=
EXTT8=
EXTT9=
EXTT10=
PLAYORDER=
